<svg width="52" height="48" viewBox="0 0 52 48" fill="none" xmlns="http://www.w3.org/2000/svg">
<path opacity="0.8" d="M2 21H8V40H2V21Z" fill="#216E7A"/>
<path d="M50.427 28.815C49.49 28.122 48.239 27.92 46.992 28.265L31.703 32.492C31.891 32.028 32 31.523 32 30.991C32 28.79 30.206 27 28 27H18.623C17.957 26 16.261 23 14 23H10V22C10 20.346 8.654 19 7 19H3C1.346 19 0 20.346 0 22V39C0 40.654 1.346 42 3 42H7C8.654 42 10 40.655 10 39V38.248L22.139 46.45C23.663 47.482 25.437 48 27.214 48C28.856 48 30.501 47.558 31.956 46.669L50.129 35.568C51.283 34.865 52 33.587 52 32.235V31.922C52 30.691 51.427 29.559 50.427 28.815ZM8 39C8 39.552 7.551 40 7 40H6V36H4V40H3C2.449 40 2 39.552 2 39V22C2 21.448 2.449 21 3 21H7C7.551 21 8 21.449 8 22V39ZM50 32.235C50 32.895 49.65 33.518 49.087 33.862L30.914 44.962C28.549 46.405 25.545 46.34 23.26 44.793L10 35.835V25H14C15.059 25 16.469 27.034 17.088 28.409L17.354 29H28C29.103 29 30 29.893 30 30.99C30 32.098 29.103 33 28 33H18V35H28H30L47.524 30.193C48.165 30.015 48.804 30.1 49.234 30.422C49.721 30.783 50 31.33 50 31.922V32.235Z" fill="#216E7A"/>
<path d="M33 22C35.631 22 46 15.441 46 7C46 3.141 42.86 0 39 0C36.457 0 34.226 1.363 33 3.397C31.774 1.363 29.543 0 27 0C23.14 0 20 3.141 20 7C20 15.441 30.369 22 33 22ZM27 2C29.757 2 32 4 32 7H34C34 4 36.243 2 39 2C41.757 2 44 4.243 44 7C44 14.563 34.321 20 33 20C31.679 20 22 14.563 22 7C22 4.243 24.243 2 27 2Z" fill="#216E7A"/>
</svg>
