<svg width="54" height="49" viewBox="0 0 54 49" fill="none" xmlns="http://www.w3.org/2000/svg">
<path opacity="0.8" d="M28.4221 25.46C27.6561 24.629 26.3441 24.629 25.5791 25.46L20.3511 31.137C18.6401 32.995 19.9571 36 22.4831 36H31.5171C34.0431 36 35.3601 32.995 33.6491 31.137L28.4221 25.46Z" fill="#216E7A"/>
<path opacity="0.8" d="M36 27C37.6569 27 39 25.6569 39 24C39 22.3431 37.6569 21 36 21C34.3431 21 33 22.3431 33 24C33 25.6569 34.3431 27 36 27Z" fill="#216E7A"/>
<path opacity="0.8" d="M18 27C19.6569 27 21 25.6569 21 24C21 22.3431 19.6569 21 18 21C16.3431 21 15 22.3431 15 24C15 25.6569 16.3431 27 18 27Z" fill="#216E7A"/>
<path opacity="0.8" d="M27 23C28.6569 23 30 21.6569 30 20C30 18.3431 28.6569 17 27 17C25.3431 17 24 18.3431 24 20C24 21.6569 25.3431 23 27 23Z" fill="#216E7A"/>
<path d="M40 0.10498C34.2 0.10498 29.078 3.96498 27 9.50298C24.922 3.96498 19.8 0.10498 14 0.10498C6.28 0.10498 0 6.77898 0 14.982C0 31.001 13.418 41.747 21.417 46.727C23.139 47.799 25.069 48.335 27 48.335C28.931 48.335 30.861 47.799 32.583 46.727C40.582 41.747 54 31.001 54 14.982C54 6.77898 47.72 0.10498 40 0.10498ZM31.526 45.03C28.734 46.768 25.266 46.766 22.474 45.03C14.828 40.269 2 30.034 2 14.982C2 7.88098 7.383 2.10498 14 2.10498C19.917 2.10498 25.017 6.84598 25.861 13.132L25.978 14H28.022L28.139 13.133C28.983 6.84698 34.083 2.10498 40 2.10498C46.617 2.10498 52 7.88098 52 14.982C52 30.034 39.172 40.269 31.526 45.03Z" fill="#216E7A"/>
<path d="M41 5V7C44.309 7 47 9.691 47 13H49C49 8.589 45.411 5 41 5Z" fill="#216E7A"/>
<path d="M41 9V11C42.103 11 43 11.897 43 13H45C45 10.794 43.206 9 41 9Z" fill="#216E7A"/>
</svg>
